<?xml version="1.0" encoding="UTF-8" standalone="no"?>
<!-- Generator: Adobe Illustrator 22.0.0, SVG Export Plug-In . SVG Version: 6.00 Build 0)  -->

<svg
   xmlns:dc="http://purl.org/dc/elements/1.1/"
   xmlns:cc="http://creativecommons.org/ns#"
   xmlns:rdf="http://www.w3.org/1999/02/22-rdf-syntax-ns#"
   xmlns:svg="http://www.w3.org/2000/svg"
   xmlns="http://www.w3.org/2000/svg"
   xmlns:sodipodi="http://sodipodi.sourceforge.net/DTD/sodipodi-0.dtd"
   xmlns:inkscape="http://www.inkscape.org/namespaces/inkscape"
   version="1.1"
   id="Layer_1"
   x="0px"
   y="0px"
   viewBox="0 0 813.8 524.6"
   xml:space="preserve"
   sodipodi:docname="map2.svg"
   width="813.79999"
   height="120%"
   inkscape:version="0.92.4 (unknown)"><metadata
   id="metadata153"><rdf:RDF><cc:Work
       rdf:about=""><dc:format>image/svg+xml</dc:format><dc:type
         rdf:resource="http://purl.org/dc/dcmitype/StillImage" /><dc:title></dc:title></cc:Work></rdf:RDF></metadata><defs
   id="defs151" /><sodipodi:namedview
   pagecolor="#ffffff"
   bordercolor="#666666"
   borderopacity="1"
   objecttolerance="10"
   gridtolerance="10"
   guidetolerance="10"
   inkscape:pageopacity="0"
   inkscape:pageshadow="2"
   inkscape:window-width="1859"
   inkscape:window-height="1056"
   id="namedview149"
   showgrid="false"
   inkscape:zoom="0.6623632"
   inkscape:cx="110.09551"
   inkscape:cy="275.77425"
   inkscape:window-x="61"
   inkscape:window-y="24"
   inkscape:window-maximized="1"
   inkscape:current-layer="Layer_1" />
<style
   type="text/css"
   id="style2">
	.st0{fill:#C7EDFF;}
	.st1{fill:#8493E7;}
	.st2{fill:#D075DB;}
	.st3{fill:none;}
	.st4{}
	.st5{}
	.st6{}
	.st7{}
</style>
<rect
   x="-0.17118835"
   y="-0.2714895"
   class="st0"
   width="818.63257"
   height="529.63885"
   id="rect4"
   style="fill:#c7edff;stroke-width:0.78837425" />
<polygon
   class="st1 region"
   points="609.7,155.9 607.1,144.7 593.8,140.7 584.2,129.7 565.3,132.8 560.1,119 539.2,119.6 526.7,109.3 507.6,110.7 506.3,128.5 493.1,145.5 472,149.9 453.8,143.7 453.6,144.5 442,165.3 443.1,188.7 450.6,190.2 479.5,202.8 501.8,200.1 510.8,212.5 533.3,219.6 542.6,218.3 557.5,201.3 567,209.6 578.6,206.2 583.9,196.3 601.6,181.4 "
   id="polygon6"
   transform="translate(-60.490254,6.2283564)"
   style="fill:#8493e7"><title
     id="title980">Акмолинская область</title></polygon>
<polygon
   class="st1 region"
   points="216.2,335.6 252.4,332.4 249.8,328.9 232.3,311.3 232.5,280.4 231.3,268.2 227.9,263.5 221.6,267.4 214.3,264 210.3,253.6 202.9,252 198.6,259.1 182.4,274.2 169.1,265.7 124.9,288.8 82.5,283.7 82,288 88.9,295.3 104.5,297.5 116.7,317.6 112.9,323.7 113.3,329.4 134.8,339.6 145.9,324.3 163.4,323.5 198.2,330.3 196.7,335.6 "
   id="polygon8"
   transform="translate(-60.490254,6.2283564)"
   style="fill:#8493e7"><title
     id="title974">Атырауская область</title></polygon>
<polygon
   class="st1 region"
   points="173.3,428.4 189.8,435.4 187.7,460.4 194.2,454.6 222.2,444.6 244.8,474.1 257,472.2 257,373.3 266.2,370.4 261.6,342.8 254.8,335.5 216.3,338.9 195.7,338.9 194.9,341.7 188.1,360.1 167.2,363.4 160.1,373.7 162.6,380.1 144.4,387.8 "
   id="polygon10"
   transform="translate(-60.490254,6.2283564)"
   style="fill:#8493e7"><title
     id="title976">Мангистауская область</title></polygon>
<polygon
   class="st1 region"
   points="488.5,476.8 487.8,485.9 502.9,491.6 503.5,487.7 516.2,468.8 546.3,450.2 535.5,435.2 532,423.4 521.7,416.5 525.4,394.7 511.9,347.8 476.6,347.4 478.1,352.5 478.1,367.4 484.9,395.4 493.4,402.7 484.2,426 457.4,448.4 457.5,448.6 466.2,479.4 "
   id="polygon12"
   transform="translate(-60.490254,6.2283564)"
   style="fill:#8493e7"><title
     id="title962">Туркестанская область</title></polygon>
<polygon
   class="st1 region"
   points="196.1,257.1 206.6,239.4 222.1,235.7 224.2,197.3 173.3,173.2 116.1,209.9 116.6,229.8 105,232.3 89,217.4 70.8,267.6 67.4,275.7 83,280.1 82.9,280.4 124.3,285.4 169.3,261.9 182.1,270.1 "
   id="polygon14"
   transform="translate(-60.490254,6.2283564)"
   style="fill:#8493e7"><title
     id="title972">Западно-Казахстанская область</title></polygon>
<polygon
   class="st1 region"
   points="228.7,259.1 234.4,267 235.7,280.3 235.5,309.9 252.3,326.9 256.7,332.8 264.7,341.3 269.3,369.4 303.2,358.6 302.2,357.7 339.9,315.7 359.2,290.7 373.4,289.6 390.2,309.7 414.7,289.9 410,283.4 393.1,265.5 381.3,252.6 377.3,237.1 386.4,227.8 376.3,202.2 375.3,196.7 366.1,192.1 365.1,206.5 336.3,202.1 323.4,204.3 301.4,193.1 282.2,193.6 252.5,210.1 227.4,198.8 225.2,238.2 208.7,242.2 204.7,249 212.7,250.8 216.8,261.6 221.4,263.7 "
   id="polygon16"
   transform="translate(-60.490254,6.2283564)"
   style="fill:#8493e7"><title
     id="title970">Актюбинская область</title></polygon>
<polygon
   class="st1 region"
   points="472.2,146.6 491.3,142.5 503.1,127.3 504.5,107.6 527.8,105.9 540.4,116.3 562.3,115.6 567.4,129.2 585.4,126.2 595.7,137.9 606.2,141 605.1,136.1 598.4,116.7 599.9,115.2 602.5,99.1 574.2,89.5 557.4,95 549.2,61.7 510.5,53.6 496.4,66.1 456.1,79.2 457,93.9 458,126.6 454.6,140.5 "
   id="polygon18"
   transform="translate(-60.490254,6.2283564)"
   style="fill:#8493e7"><title
     id="title978">Северо-Казахстанская область</title></polygon>
<polygon
   class="st1 region"
   points="660.5,95.8 666.2,86.1 657.9,86.1 612.6,114.9 602.3,117.9 608.2,135.3 613.1,156.1 604.7,182.4 609.6,202.7 623.7,202.7 631.1,220.6 658.8,215 672.2,204.2 684.6,217.1 694.1,221.8 702.8,220.7 704.9,209.5 692.2,194.9 715.5,178.5 686.1,124.4 "
   id="polygon20"
   transform="translate(-60.490254,6.2283564)"
   style="fill:#8493e7"><title
     id="title986">Павлодарская область</title></polygon>
<polygon
   class="st1 region"
   points="372,293 360.9,293.8 342.4,317.8 306.9,357.4 308.3,356.9 311.5,358.6 325.2,367.1 327.1,362.5 329.8,357.9 335.2,373.3 374.6,414.3 393.6,411.5 429.3,409.5 454.9,431.6 456.9,444.7 481.4,424 489.5,403.7 482,397.2 474.8,367.6 474.8,353 471.9,342.9 444.6,341.8 389,313.3 "
   id="polygon22"
   transform="translate(-60.490254,6.2283564)"
   style="fill:#8493e7"><title
     id="title988">Кызылординская область</title></polygon>
<polygon
   class="st1 region"
   points="359.5,100 353.1,112.1 365.6,133.6 349.6,141.8 350.1,155.4 331.6,169.6 364.4,189.3 365.1,188 378.2,194.5 379.5,201.4 390.1,228.6 380.9,238.1 384.3,251 395.4,263.3 410.3,279 410.4,278.3 423.8,257.1 437.1,259.3 452,252.6 487.4,210.2 484.8,205.9 485.8,205.3 479,206.1 449.4,193.2 440,191.4 438.7,164.6 450.5,143.3 454.8,126.2 453.7,94 452.9,80.2 431.7,87.1 "
   id="polygon24"
   transform="translate(-60.490254,6.2283564)"
   style="fill:#8493e7"><title
     id="title968">Костанайская область</title></polygon>
<polygon
   class="st1 region"
   points="538.4,433.7 548.9,448.2 554.2,438.1 565.9,432.5 596.4,442.1 599.4,430.1 613.8,422.4 639.2,432.6 644.2,431.9 634.1,413.5 635,397.9 618.2,380.9 606.6,361.7 606.6,347 515.2,347.8 528.7,394.5 525.3,415 534.8,421.3 "
   id="polygon26"
   transform="translate(-60.490254,6.2283564)"
   style="fill:#8493e7"><title
     id="title964">Жамбылская область</title></polygon>
<polygon
   class="st2 region"
   points="586.5,198.4 580.8,209 566.2,213.3 557.8,205.9 544.3,221.4 533,222.9 508.8,215.2 500.2,203.5 488.1,205 491.4,210.5 454.1,255.3 437.5,262.6 425.4,260.7 413.5,279.5 413,282 419.2,290.4 393,311.7 445.5,338.6 474.3,339.8 475.6,344.2 513.1,344.6 607.7,343.7 627,327.9 648.7,324.4 669.7,328.9 679.1,323.2 679.1,313.4 667.5,314.9 664.7,306.2 669.7,279.4 668.1,256.6 658.2,246.4 681.5,218.5 671.9,208.6 660.3,218 629.1,224.4 621.5,206 607,206 602.1,185.3 "
   id="polygon28"
   transform="translate(-60.490254,6.2283564)"
   style="fill:#d075db"><title
     id="title982">Карагандинская область</title></polygon>
<polygon
   class="st1 region"
   points="716.3,318.2 734.7,321.2 759.4,332.5 772.5,350.4 773.1,346.8 789.6,310.8 822.8,319.6 838.4,306.1 838.3,275.7 859.8,267 870.4,251.6 856.8,239.7 831.8,236.3 813.5,221 793.3,197.4 756,202.4 749.7,193.7 739.9,190.4 728.6,202.8 717.6,182.4 717,181.3 697,195.5 708.4,208.6 705.5,223.7 693.5,225.1 684.1,220.4 662.6,246.2 671.3,255.2 672.9,279.6 672.9,279.8 668.1,306 669.8,311.3 678.9,310.1 679.1,311.6 679.1,309.8 701.5,310.9 "
   id="polygon30"
   transform="translate(-60.490254,6.2283564)"
   style="fill:#8493e7"><title
     id="title984">Восточно-Казахстанская область</title></polygon>
<rect
   x="388.00974"
   y="80.628204"
   class="st3"
   width="115.3"
   height="39.900002"
   id="rect32"
   style="fill:none" />
<text
   id="text38"
   x="426.09464"
   y="89.229706"><tspan
     x="426.09464"
     y="89.229706"
     class="st4 st5"
     id="tspan34"
     style="">Северо-</tspan><tspan
     x="410.49466"
     y="103.02959"
     class="st4 st5"
     id="tspan36"
     style="">Казахстанская</tspan></text>


<rect
   x="273.70975"
   y="168.62796"
   class="st3"
   width="115.3"
   height="39.900002"
   id="rect40"
   style="fill:none" />
<text
   class="st4 st5"
   id="text42"
   x="297.91345"
   y="177.15485"
   style="">Костанайская</text>


<rect
   x="383.70975"
   y="372.42798"
   class="st3"
   width="115.3"
   height="39.900002"
   id="rect44"
   style="fill:none" />
<text
   id="text50"
   x="397.36008"
   y="391.54874"
   inkscape:transform-center-x="-12.455403"
   inkscape:transform-center-y="-16.607204"><tspan
     x="397.36008"
     y="391.54874"
     class="st4 st5"
     id="tspan46"
     style="">Туркестанская</tspan></text>


<rect
   x="407.70975"
   y="159.52795"
   class="st3"
   width="115.3"
   height="11.1"
   id="rect52"
   style="fill:none" />
<text
   class="st4 st5"
   id="text54"
   x="433.25964"
   y="168.11096"
   style="">Акмолинская</text>


<polygon
   class="st1 region"
   points="774.2,368.2 777.8,363.8 771.7,355 771.7,354.8 757.2,335.1 733.7,324.3 715.3,321.3 700.7,314.2 682.3,313.2 682.3,325.1 670.3,332.3 648.6,327.7 628.4,331 609.9,346.1 609.9,360.8 620.9,379.1 638.4,396.7 637.4,412.7 647.7,431.4 667,428.7 702.7,434.9 732.2,448.2 740.8,419.1 734,382.4 725.2,376.3 759.1,367.2 "
   id="polygon56"
   transform="translate(-60.490254,6.2283564)"
   style="fill:#8493e7"><title
     id="title966">Алматинская область</title></polygon>
<rect
   x="555.10974"
   y="406.02795"
   class="st3"
   width="115.3"
   height="39.900002"
   id="rect58"
   style="fill:none" />
<text
   class="st0 st6 st5"
   id="text60"
   x="592.25873"
   y="414.59186"
   style="fill:#c7edff">Алматы</text>


<rect
   x="414.10974"
   y="183.02795"
   class="st3"
   width="115.3"
   height="18.700001"
   id="rect62"
   style="fill:none" />
<text
   class="st0 st6 st5"
   id="text64"
   x="441.89835"
   y="191.59186"
   style="fill:#c7edff">Нур-Султан</text>


<rect
   x="388.10974"
   y="438.02795"
   class="st3"
   width="115.3"
   height="39.900002"
   id="rect66"
   style="fill:none" />
<text
   class="st0 st6 st5"
   id="text68"
   x="420.93054"
   y="446.59186"
   style="fill:#c7edff">Шымкент</text>


<rect
   x="190.30975"
   y="269.12796"
   class="st3"
   width="115.3"
   height="39.900002"
   id="rect70"
   style="fill:none" />
<text
   class="st4 st5"
   id="text72"
   x="215.95694"
   y="277.69836"
   style="">Актюбинская</text>


<rect
   x="540.70978"
   y="165.92795"
   class="st3"
   width="115.3"
   height="39.900002"
   id="rect74"
   style="fill:none" />
<text
   class="st4 st5"
   id="text76"
   x="563.66595"
   y="174.49527"
   style="">Павлодарская</text>


<rect
   x="643.90979"
   y="265.32797"
   class="st3"
   width="115.3"
   height="39.900002"
   id="rect78"
   style="fill:none" />
<text
   id="text84"
   x="676.61023"
   y="273.87607"><tspan
     x="676.61023"
     y="273.87607"
     class="st4 st5"
     id="tspan80"
     style="">Восточно-</tspan><tspan
     x="666.41022"
     y="287.67606"
     class="st4 st5"
     id="tspan82"
     style="">Казахстанская</tspan></text>


<rect
   x="45.809753"
   y="218.32797"
   class="st3"
   width="115.3"
   height="39.900002"
   id="rect86"
   style="fill:none" />
<text
   id="text92"
   x="80.98085"
   y="226.93176"><tspan
     x="80.98085"
     y="226.93176"
     class="st4 st5"
     id="tspan88"
     style="">Западно-</tspan><tspan
     x="68.280853"
     y="240.73175"
     class="st4 st5"
     id="tspan90"
     style="">Казахстанская</tspan></text>


<rect
   x="434.10974"
   y="279.32797"
   class="st3"
   width="115.3"
   height="39.900002"
   id="rect94"
   style="fill:none" />
<text
   class="st4 st5"
   id="text96"
   x="452.12103"
   y="287.86435"
   style="">Карагандинская</text>


<rect
   x="285.20975"
   y="363.02795"
   class="st3"
   width="115.3"
   height="39.900002"
   id="rect98"
   style="fill:none" />
<text
   class="st4 st5"
   id="text100"
   x="300.83633"
   y="371.65338"
   style="">Кызылординская</text>


<rect
   x="89.709747"
   y="399.02795"
   class="st3"
   width="115.3"
   height="39.900002"
   id="rect102"
   style="fill:none" />
<text
   class="st4 st5"
   id="text104"
   x="106.48425"
   y="407.60266"
   style="">Мангистауская</text>

<rect
   x="55.309753"
   y="299.22797"
   class="st3"
   width="115.3"
   height="39.900002"
   id="rect122"
   style="fill:none" />
<text
   class="st4 st5"
   id="text124"
   x="84.651749"
   y="307.79205"
   style="">Атырауская</text>


<rect
   x="556.30975"
   y="367.02795"
   class="st3"
   width="115.3"
   height="19.799999"
   id="rect126"
   style="fill:none" />
<text
   class="st4 st5"
   id="text128"
   x="582.45984"
   y="375.55475"
   style="">Алматинская</text>


<rect
   x="462.50977"
   y="403.62793"
   class="st3"
   width="115.3"
   height="13.1"
   id="rect130"
   style="fill:none" />
<text
   class="st4 st5"
   id="text132"
   x="486.44623"
   y="412.23346"
   style=""><title
   id="title960">Жамбылская область</title>Жамбылская</text>






<circle
   class="st0"
   cx="471.90979"
   cy="201.72797"
   r="5"
   id="circle142"
   style="fill:#c7edff"><title
     id="title990">Нур-Султан</title></circle>
<circle
   class="st0"
   cx="613.90979"
   cy="424.72797"
   r="5"
   id="circle144"
   style="fill:#c7edff"><title
     id="title992">Алматы</title></circle>
<circle
   class="st0"
   cx="452.90979"
   cy="458.72797"
   r="5"
   id="circle146"
   style="fill:#c7edff"><title
     id="title994">Шымкент</title></circle>
</svg>
