<?xml version="1.0" encoding="UTF-8" standalone="no"?>
<!-- Generator: Adobe Illustrator 22.0.0, SVG Export Plug-In . SVG Version: 6.00 Build 0)  -->

<svg
   xmlns:dc="http://purl.org/dc/elements/1.1/"
   xmlns:cc="http://creativecommons.org/ns#"
   xmlns:rdf="http://www.w3.org/1999/02/22-rdf-syntax-ns#"
   xmlns:svg="http://www.w3.org/2000/svg"
   xmlns="http://www.w3.org/2000/svg"
   xmlns:sodipodi="http://sodipodi.sourceforge.net/DTD/sodipodi-0.dtd"
   xmlns:inkscape="http://www.inkscape.org/namespaces/inkscape"
   version="1.1"
   id="Layer_1"
   x="0px"
   y="0px"
   viewBox="0 0 866.3 516.7"
   style="enable-background:new 0 0 866.3 516.7;"
   xml:space="preserve"
   sodipodi:docname="map_alone.svg"
   inkscape:version="0.92.4 (unknown)"><metadata
   id="metadata137"><rdf:RDF><cc:Work
       rdf:about=""><dc:format>image/svg+xml</dc:format><dc:type
         rdf:resource="http://purl.org/dc/dcmitype/StillImage" /></cc:Work></rdf:RDF></metadata><defs
   id="defs135" /><sodipodi:namedview
   pagecolor="#ffffff"
   bordercolor="#666666"
   borderopacity="1"
   objecttolerance="10"
   gridtolerance="10"
   guidetolerance="10"
   inkscape:pageopacity="0"
   inkscape:pageshadow="2"
   inkscape:window-width="1859"
   inkscape:window-height="1056"
   id="namedview133"
   showgrid="false"
   inkscape:zoom="1.4636962"
   inkscape:cx="458.1104"
   inkscape:cy="260.1442"
   inkscape:window-x="61"
   inkscape:window-y="24"
   inkscape:window-maximized="1"
   inkscape:current-layer="Layer_1" />
<style
   type="text/css"
   id="style2">
	.st0{fill:#00CBCC;}
	.st1{opacity:0.7;fill:#FFFFFF;}
	.st2{opacity:0.7;fill:#FFFFFF;stroke:#00CBCC;stroke-width:3;stroke-miterlimit:10;}
	.st3{opacity:0.7;fill:#FFFFFF;}
	.st4{fill:none;}
	.st5{}
	.st6{font-size:11.4658px;}
	.st7{}
</style>
<rect
   x="-5"
   y="-13.9"
   class="st0"
   width="883"
   height="538"
   id="rect4" />
<path
   class="st1 region"
   d="M569.7,137.3l-13.2-3.9l-9.6-11.1l-18.9,3.2l-5.2-13.9l-20.8,0.7l-12.5-10.4l-19.2,1.4l-1.3,17.9l-13.2,16.9  l-21.1,4.5l-18.2-6.3l-0.2,0.9l-11.6,20.8l1.2,23.4l7.5,1.5l28.9,12.6l22.3-2.7l9,12.4l22.5,7.2l9.3-1.3l14.9-17.1l9.5,8.3l11.6-3.4  l5.3-10l17.7-14.9l8-25.4L569.7,137.3z M501.5,194.6l-4,4l-3,1l-4-2l-2-3v-5l2-4l4-1l3,2l3-2l1,1l-1,3l2,3h2l1,3H501.5z"
   id="path6"><title
     id="title944">Акмолинская область</title></path>
<polygon
   class="st1 region"
   points="502.5,191.6 500.5,188.6 501.5,185.6 500.5,184.6 497.5,186.6 494.5,184.6 490.5,185.6 488.5,189.6   488.5,194.6 490.5,197.6 494.5,199.6 497.5,198.6 501.5,194.6 505.5,194.6 504.5,191.6 "
   id="polygon8" />
<path
   class="st1 region"
   d="M734.3,347.6l0-0.2l-14.5-19.7l-23.5-10.8l-18.4-3l-14.7-7.1l-18.3-1v11.9l-12.1,7.2l-21.6-4.6l-20.2,3.3  l-18.5,15.1v14.7l11,18.2l17.5,17.6l-1,16.1l10.3,18.7l19.4-2.7l35.7,6.2l29.5,13.3l8.6-29.1l-6.8-36.7l-8.9-6.1l34-9.1l15.1,1  l3.6-4.4L734.3,347.6z M650.5,411.6h-2v7l-7-2v-3l-5-2l-1-8l4-2h2l4-4l3,4l-2,3l1,5h4L650.5,411.6z"
   id="path10"><title
     id="title978">Алматинская область</title></path>
<polygon
   class="st1 region"
   points="646.5,404.6 648.5,401.6 645.5,397.6 641.5,401.6 639.5,401.6 635.5,403.6 636.5,411.6 641.5,413.6   641.5,416.6 648.5,418.6 648.5,411.6 650.5,411.6 651.5,409.6 647.5,409.6 "
   id="polygon12" />
<polygon
   class="st1 region"
   points="215,325 212.4,321.5 194.9,303.9 195.1,273 193.9,260.8 190.5,256.1 184.3,260 176.9,256.6   172.9,246.2 165.5,244.6 161.2,251.8 145,266.9 131.7,258.3 87.5,281.4 45.2,276.3 44.6,280.6 51.5,287.9 67.1,290.1 79.3,310.2   75.5,316.3 75.9,322 97.4,332.2 108.6,316.9 126,316.1 160.8,322.9 159.3,328.2 178.8,328.2 "
   id="polygon14"><title
     id="title948">Атырауская область</title></polygon>
<polygon
   class="st1 region"
   points="217.4,328.1 178.9,331.5 158.4,331.5 157.5,334.3 150.7,352.7 129.9,356 122.7,366.3 125.2,372.7   107,380.4 135.9,421 152.4,428 150.3,453 156.8,447.2 184.8,437.2 207.4,466.7 219.6,464.8 219.7,365.9 228.8,363 224.2,335.4 "
   id="polygon16"><title
     id="title976">Мангистауская область</title></polygon>
<path
   class="st1"
   d="M498.1,427.8l-3.5-11.8l-10.3-6.9l3.7-21.8l-13.5-46.9l-35.3-0.4l1.5,5.1V360l6.8,28l8.5,7.3l-9.2,23.3  L420,441.1l0,0.2l8.8,30.7l22.3-2.6l-0.7,9.1l15.1,5.8l0.6-3.9l12.7-18.9l30.1-18.5L498.1,427.8z M482,445.1l-2,1l1,2l-2,1l-2-1  l-3,3l-4.3-3.5l-1.7-5.5l4-4l6,1l6,6H482z"
   id="path18"><title
     id="title954">Туркестанская область</title></path>
<polygon
   class="st2 region"
   points="472,438.1 468,442.1 469.7,447.6 474,451.1 477,448.1 479,449.1 481,448.1 480,446.1 482,445.1   484,445.1 478,439.1 "
   id="polygon20"
   style="opacity:0.839"><title
     id="title956">Шымкент</title></polygon>
<polygon
   class="st1 region"
   points="131.9,254.5 144.7,262.7 158.7,249.7 169.2,232 184.7,228.3 186.8,189.9 135.9,165.8 78.8,202.5   79.2,222.4 67.6,225 51.6,210 33.4,260.2 30,268.3 45.6,272.7 45.5,273 86.9,278 "
   id="polygon22"><title
     id="title958">Западно-Казахстанская область</title></polygon>
<polygon
   class="st1"
   points="302.5,308.3 321.8,283.3 336,282.2 352.8,302.3 377.3,282.5 372.6,276 355.7,258.1 343.9,245.2   340,229.7 349,220.4 338.9,194.8 337.9,189.3 328.7,184.7 327.8,199.1 298.9,194.7 286.1,196.9 264,185.7 244.8,186.2 215.1,202.7   190,191.4 187.8,230.9 171.3,234.8 167.3,241.6 175.3,243.4 179.4,254.2 184,256.3 191.3,251.7 197,259.6 198.4,272.9 198.2,302.6   214.9,319.5 219.3,325.4 227.3,333.9 231.9,362 265.8,351.2 264.8,350.3 "
   id="polygon24"><title
     id="title960">Актюбинская область</title></polygon>
<polygon
   class="st1 region"
   points="420.6,119.2 417.2,133.1 434.8,139.2 453.9,135.1 465.7,119.9 467.1,100.2 490.4,98.5 503,108.9   524.9,108.2 530,121.8 548.1,118.8 558.3,130.5 568.8,133.6 567.7,128.7 561,109.3 562.5,107.8 565.1,91.7 536.9,82.1 520,87.6   511.8,54.3 473.1,46.2 459,58.7 418.7,71.8 419.6,86.5 "
   id="polygon26"><title
     id="title962">Северо-Казахстанская область</title></polygon>
<polygon
   class="st1 region"
   points="575.7,148.7 567.3,175 572.2,195.3 586.3,195.3 593.7,213.2 621.5,207.6 634.8,196.8 647.2,209.7   656.7,214.4 665.4,213.4 667.6,202.1 654.8,187.5 678.1,171.1 648.7,117 623.1,88.4 628.8,78.7 620.5,78.7 575.2,107.5 564.9,110.5   570.8,127.9 "
   id="polygon28"><title
     id="title964">Павлодарская область</title></polygon>
<polygon
   class="st1 region"
   points="452.1,396.3 444.6,389.8 437.4,360.2 437.4,345.6 434.5,335.5 407.2,334.4 351.6,305.9 334.6,285.6   323.5,286.4 305,310.4 269.5,350 271,349.5 274.1,351.2 287.8,359.7 289.7,355.1 292.4,350.5 297.8,365.9 337.2,406.9 356.3,404.1   391.9,402.1 417.6,424.2 419.5,437.3 444,416.7 "
   id="polygon30"><title
     id="title966">Кызылординская область</title></polygon>
<polygon
   class="st1 region"
   points="340.8,187.1 342.1,194 352.8,221.2 343.6,230.7 346.9,243.6 358.1,255.9 372.9,271.6 373,270.9   386.4,249.7 399.7,251.9 414.7,245.2 450.1,202.8 447.4,198.5 448.4,197.9 441.6,198.7 412.1,185.8 402.6,184 401.3,157.2   413.1,135.9 417.4,118.9 416.3,86.6 415.5,72.8 394.3,79.7 322.1,92.6 315.7,104.7 328.2,126.2 312.3,134.4 312.8,148 294.2,162.2   327.1,181.9 327.7,180.6 "
   id="polygon32"><title
     id="title968">Костанайская область</title></polygon>
<polygon
   class="st1 region"
   points="597.6,390.5 580.8,373.5 569.3,354.3 569.3,339.6 477.9,340.4 491.3,387.1 487.9,407.6 497.4,413.9   501.1,426.3 511.5,440.8 516.8,430.7 528.5,425.1 559,434.7 562,422.7 576.4,415 601.9,425.2 606.8,424.5 596.7,406.1 "
   id="polygon34"><title
     id="title970">Жамбылская область</title></polygon>
<polygon
   class="st3 region"
   points="627.4,298.8 632.3,272 630.7,249.2 620.8,239 644.1,211.1 634.5,201.2 622.9,210.6 591.7,217   584.1,198.6 569.6,198.6 564.7,177.9 549.1,191 543.5,201.6 528.9,205.9 520.4,198.5 506.9,214 495.7,215.5 471.4,207.8   462.9,196.1 450.7,197.6 454,203.1 416.7,247.9 400.1,255.2 388,253.3 376.1,272.1 375.6,274.6 381.8,283.1 355.6,304.3   408.1,331.2 436.9,332.4 438.2,336.8 475.7,337.2 570.3,336.3 589.6,320.5 611.3,317 632.3,321.5 641.7,315.9 641.7,306   630.1,307.5 "
   id="polygon36"><title
     id="title972">Карагандинская область</title></polygon>
<polygon
   class="st1 region"
   points="833,244.2 819.4,232.3 794.4,228.9 776.1,213.6 755.9,190 718.6,195 712.4,186.3 702.5,183   691.3,195.4 680.2,175 679.6,174 659.6,188.1 671,201.2 668.2,216.3 656.1,217.7 646.7,213 625.2,238.8 633.9,247.8 635.6,272.2   635.5,272.4 630.7,298.6 632.4,303.9 641.5,302.7 641.7,304.2 641.7,302.4 664.1,303.5 678.9,310.8 697.3,313.8 722,325.1   735.1,343 735.8,339.4 752.2,303.4 785.4,312.2 801,298.7 800.9,268.3 822.4,259.6 "
   id="polygon38"><title
     id="title974">Восточно-Казахстанская область</title></polygon>
<rect
   x="411.2"
   y="67"
   class="st4"
   width="115.3"
   height="39.9"
   id="rect40" />
<text
   transform="matrix(1 0 0 1 449.2007 75.6057)"
   id="text46"><tspan
     x="0"
     y="0"
     class="st5 st6"
     id="tspan42">Северо-</tspan><tspan
     x="-15.6"
     y="13.8"
     class="st5 st6"
     id="tspan44">Казахстанская</tspan></text>

<rect
   x="296.8"
   y="155"
   class="st4"
   width="115.3"
   height="39.9"
   id="rect48" />
<text
   transform="matrix(1 0 0 1 321.0195 163.5309)"
   class="st5 st6"
   id="text50">Костанайская</text>

<rect
   x="406.8"
   y="358.8"
   class="st4"
   width="115.3"
   height="39.9"
   id="rect52" />
<text
   transform="translate(448.019,367.3566)"
   id="text58"><tspan
     x="-18.700001"
     y="13.8"
     class="st5 st6"
     id="tspan56"
     style="font-size:11.46580029px">Туркестанская</tspan></text>

<rect
   x="430.8"
   y="145.9"
   class="st4"
   width="115.3"
   height="11.1"
   id="rect60" />
<text
   transform="matrix(1 0 0 1 456.3657 154.487)"
   class="st5 st6"
   id="text62">Акмолинская</text>

<rect
   x="586.2"
   y="384.4"
   class="st4"
   width="115.3"
   height="39.9"
   id="rect64" />
<text
   transform="matrix(1 0 0 1 623.3022 392.9904)"
   id="text70"><tspan
     x="0"
     y="0"
     class="st7 st6"
     id="tspan66">Алмат</tspan><tspan
     x="33.4"
     y="0"
     class="st5 st6"
     id="tspan68">ы</tspan></text>

<rect
   x="478"
   y="169.4"
   class="st4"
   width="67.5"
   height="14.7"
   id="rect72" />
<text
   transform="matrix(1 0 0 1 482.0034 177.968)"
   class="st7 st6"
   id="text74">Нур-Султан</text>

<rect
   x="411.2"
   y="424.4"
   class="st4"
   width="115.3"
   height="39.9"
   id="rect76" />
<text
   transform="matrix(1 0 0 1 444.0366 432.968)"
   class="st7 st6"
   id="text78">Шымкент</text>

<rect
   x="213.4"
   y="255.5"
   class="st4"
   width="115.3"
   height="39.9"
   id="rect80" />
<text
   transform="matrix(1 0 0 1 239.063 264.0744)"
   class="st5 st6"
   id="text82">Актюбинская</text>

<rect
   x="563.8"
   y="152.3"
   class="st4"
   width="115.3"
   height="39.9"
   id="rect84" />
<text
   transform="matrix(1 0 0 1 586.772 160.8713)"
   class="st5 st6"
   id="text86">Павлодарская</text>

<rect
   x="667"
   y="251.7"
   class="st4"
   width="115.3"
   height="39.9"
   id="rect88" />
<text
   transform="matrix(1 0 0 1 699.7163 260.2521)"
   id="text94"><tspan
     x="0"
     y="0"
     class="st5 st6"
     id="tspan90">Восточно-</tspan><tspan
     x="-10.2"
     y="13.8"
     class="st5 st6"
     id="tspan92">Казахстанская</tspan></text>

<rect
   x="68.9"
   y="204.7"
   class="st4"
   width="115.3"
   height="39.9"
   id="rect96" />
<text
   transform="matrix(1 0 0 1 104.0869 213.3078)"
   id="text102"><tspan
     x="0"
     y="0"
     class="st5 st6"
     id="tspan98">Западно-</tspan><tspan
     x="-12.7"
     y="13.8"
     class="st5 st6"
     id="tspan100">Казахстанская</tspan></text>

<rect
   x="457.2"
   y="265.7"
   class="st4"
   width="115.3"
   height="39.9"
   id="rect104" />
<text
   transform="matrix(1 0 0 1 475.227 274.2404)"
   class="st5 st6"
   id="text106">Карагандинская</text>

<rect
   x="308.3"
   y="349.5"
   class="st4"
   width="115.3"
   height="39.9"
   id="rect108" />
<text
   transform="matrix(1 0 0 1 323.9424 358.0295)"
   class="st5 st6"
   id="text110">Кызылординская</text>

<rect
   x="112.8"
   y="385.4"
   class="st4"
   width="115.3"
   height="39.9"
   id="rect112" />
<text
   class="st5 st6"
   id="text114"
   style="font-size:11.46580029px"
   x="127.5903"
   y="393.9787">Мангистауская</text>

<rect
   x="78.4"
   y="285.6"
   class="st4"
   width="115.3"
   height="39.9"
   id="rect116" />
<text
   transform="matrix(1 0 0 1 107.7578 294.1682)"
   class="st5 st6"
   id="text118">Атырауская</text>

<rect
   x="579.4"
   y="353.4"
   class="st4"
   width="115.3"
   height="19.8"
   id="rect120" />
<text
   transform="matrix(1 0 0 1 605.5659 361.9308)"
   class="st5 st6"
   id="text122">Алматинская</text>

<rect
   x="485.6"
   y="390"
   class="st4"
   width="115.3"
   height="39.9"
   id="rect124" />
<text
   transform="matrix(1 0 0 1 509.5522 398.6086)"
   class="st5 st6"
   id="text126">Жамбыльская</text>

<polygon
   class="st2"
   points="646.5,404.6 648.5,401.6 645.5,397.6 641.5,401.6 639.5,401.6 635.5,403.6 636.5,411.6 641.5,413.6   641.5,416.6 648.5,418.6 648.5,411.6 650.5,411.6 651.5,409.6 647.5,409.6 "
   id="polygon128"><title
     id="title980">Алматы</title></polygon>
<polygon
   class="st2"
   points="502.5,191.6 500.5,188.6 501.5,185.6 500.5,184.6 497.5,186.6 494.5,184.6 490.5,185.6 488.5,189.6   488.5,194.6 490.5,197.6 494.5,199.6 497.5,198.6 501.5,194.6 505.5,194.6 504.5,191.6 "
   id="polygon130"><title
     id="title946">Нур-Султан</title></polygon>
<text
   xml:space="preserve"
   style="font-style:normal;font-variant:normal;font-weight:normal;font-stretch:normal;font-size:16px;line-height:1.25;font-family:'Clear Sans';-inkscape-font-specification:'Clear Sans';font-variant-ligatures:normal;font-variant-caps:normal;font-variant-numeric:normal;font-feature-settings:normal;text-align:start;letter-spacing:0px;word-spacing:0px;writing-mode:lr-tb;text-anchor:start;fill:#000000;fill-opacity:1;stroke:none"
   x="152.39999"
   y="428"
   id="text952"><tspan
     sodipodi:role="line"
     id="tspan950"
     x="152.39999"
     y="441.63281" /></text>
</svg>